PathFileType	4	(X/Y/Z)	Kaydara																																																																																																																									
DataRate	CameraRate	NumFrames	NumMarkers	Units	OrigDataRate	OrigDataStartFrame	OrigNumFrames																																																																																																																					
30	30	9	41	mm	30	74	373																																																																																																																					
Frame#	Time	NABA_LFHD			NABA_RFHD			NABA_LBHD			NABA_RBHD			NABA_LFTShould			NABA_RFTShould			NABA_LRRShould			NABA_RRRShould			NABA_T10			NABA_STRN			NABA_TRUN			NABA_LSHO			NABA_LUPA			NABA_LELB			NABA_LFRM			NABA_LWRA			NABA_LWRB			NABA_LFIN			NABA_RSHO			NABA_RUPA			NABA_RELB			NABA_RFRM			NABA_RWRA			NABA_RWRB			NABA_RFIN			NABA_LFWT			NABA_RFWT			NABA_LBWT			NABA_RBWT			NABA_LTHI			NABA_LKNE			NABA_LSHN			NABA_LANK			NABA_LHEE			NABA_LTOE			NABA_RTHI			NABA_RKNE			NABA_RSHN			NABA_RANK			NABA_RHEE			NABA_RTOE		
		X1	Y1	Z1	X2	Y2	Z2	X3	Y3	Z3	X4	Y4	Z4	X5	Y5	Z5	X6	Y6	Z6	X7	Y7	Z7	X8	Y8	Z8	X9	Y9	Z9	X10	Y10	Z10	X11	Y11	Z11	X12	Y12	Z12	X13	Y13	Z13	X14	Y14	Z14	X15	Y15	Z15	X16	Y16	Z16	X17	Y17	Z17	X18	Y18	Z18	X19	Y19	Z19	X20	Y20	Z20	X21	Y21	Z21	X22	Y22	Z22	X23	Y23	Z23	X24	Y24	Z24	X25	Y25	Z25	X26	Y26	Z26	X27	Y27	Z27	X28	Y28	Z28	X29	Y29	Z29	X30	Y30	Z30	X31	Y31	Z31	X32	Y32	Z32	X33	Y33	Z33	X34	Y34	Z34	X35	Y35	Z35	X36	Y36	Z36	X37	Y37	Z37	X38	Y38	Z38	X39	Y39	Z39	X40	Y40	Z40	X41	Y41	Z41
																																																																																																																												
1	2.43	260.75516	1458.45566	-1732.8595	89.91946	1427.36069	-1743.58688	280.22778	1538.74786	-1828.55301	61.97541	1493.37097	-1814.84924	252.97083	1320.06012	-1909.51141	122.13073	1315.04959	-1914.60892	260.57545	1393.62671	-2013.98483	114.63883	1387.06436	-2014.10675	202.38018	1242.06261	-2119.35425	190.25518	1257.61375	-1869.37164	190.85194	1153.5759	-1835.62042	348.26191	1352.5943	-1944.57733	415.04475	1128.09303	-1971.98669	413.80623	1025.6514	-1952.59979	407.66582	946.41464	-1977.52914	332.26704	799.98512	-1917.45941	399.78329	798.57742	-1904.65988	367.67597	742.01767	-1866.98578	41.04115	1345.72235	-1951.90735	-19.7943	1150.23804	-2032.42355	-40.14881	1016.4566	-1989.2453	-42.38038	921.93703	-1984.19312	28.88536	795.85159	-1917.50046	-43.34999	784.71817	-1910.16174	-25.58953	746.8708	-1881.22528	320.98431	946.87798	-1928.06259	56.4093	947.07359	-1938.86398	280.25904	1009.92996	-2100.08621	109.70637	1024.31641	-2111.03958	321.66023	648.47	-2064.60419	310.32299	499.03301	-2007.94449	247.10001	302.82953	-1995.82596	273.34839	154.38301	-2069.64325	216.60069	110.42454	-2130.70633	242.99732	77.77706	-1947.34924	55.87648	656.81419	-2044.25812	60.17144	508.01487	-1904.86099	65.59827	332.46536	-1950.50079	54.29683	158.12971	-2054.48578	102.24962	121.39361	-2127.36053	69.0584	82.96507	-1954.34357
2	2.463	263.83535	1454.75922	-1729.54086	92.94259	1424.00589	-1741.10764	283.83957	1535.98663	-1824.06601	65.45239	1490.81589	-1811.59698	256.52796	1318.34702	-1907.23724	126.71567	1313.3815	-1913.24539	264.9589	1392.81754	-2010.83313	119.10767	1386.22208	-2012.15103	207.60548	1242.18102	-2117.87018	193.42093	1255.32295	-1868.34259	193.76953	1151.13647	-1835.19836	351.95385	1351.09024	-1941.08185	418.86017	1126.41434	-1967.4765	417.41711	1024.10309	-1947.7652	411.76514	944.8394	-1972.55249	336.09882	798.36121	-1913.21381	403.44749	796.99997	-1899.87961	370.60509	740.10406	-1862.2023	45.07456	1344.42596	-1950.84656	-15.27943	1148.88962	-2032.12662	-35.75633	1015.28183	-1988.97461	-37.79639	920.58777	-1983.44635	34.5432	795.55672	-1915.06699	-38.88235	783.55003	-1908.80783	-21.2159	745.99648	-1879.74258	325.26802	946.45164	-1927.20917	60.75205	946.31065	-1939.41254	285.44025	1009.14734	-2099.36386	114.70259	1022.82249	-2111.74194	325.54443	647.89337	-2063.88077	313.35972	498.39172	-2007.44522	248.92935	302.48663	-1995.33539	274.03595	153.93203	-2069.32281	217.04374	110.58722	-2130.48767	243.06932	77.67303	-1947.29843	59.03695	654.7374	-2034.61212	63.15483	511.29715	-1888.42743	67.54754	335.52044	-1936.71539	55.04047	165.58775	-2047.43088	102.478	132.16622	-2121.82098	69.00312	83.27241	-1951.18622
3	2.497	266.83117	1451.01166	-1726.18088	96.05678	1420.63126	-1738.79395	287.27829	1533.62259	-1819.85596	68.77583	1488.37219	-1808.61908	259.98585	1317.05521	-1905.20508	130.02951	1311.87988	-1912.45972	269.25838	1392.18826	-2008.06	123.37688	1385.63141	-2010.67139	212.70685	1242.31766	-2116.54968	196.54068	1253.61343	-1867.44553	196.64257	1149.29085	-1834.7467	355.46001	1349.74197	-1937.77863	422.5967	1125.10948	-1962.9129	420.88303	1023.06526	-1943.09525	415.77572	943.76892	-1967.65869	340.03891	796.92986	-1909.46182	407.28863	795.89622	-1895.24048	374.33731	738.85323	-1858.12241	49.00331	1343.4108	-1950.36316	-10.63066	1147.75352	-2032.2583	-31.39671	1014.30847	-1989.22546	-32.96871	919.31168	-1982.94983	39.15798	794.87541	-1913.67218	-34.02566	782.78046	-1907.71881	-16.50554	745.41	-1878.37265	329.16744	946.17363	-1926.13998	64.89985	946.26137	-1939.92416	289.96895	1008.36807	-2098.63129	119.25478	1021.57166	-2112.22717	328.78067	647.42729	-2063.32855	315.97767	497.83569	-2007.22031	250.37415	302.1147	-1995.33905	274.56007	153.71264	-2069.0535	217.40042	110.61964	-2130.24872	243.1447	77.57803	-1947.26364	61.68778	653.60916	-2025.40512	66.44886	515.74703	-1872.53342	69.69574	339.60506	-1922.60666	56.26128	173.48675	-2039.10294	102.42948	143.76082	-2114.93042	69.32929	83.9412	-1947.24045
4	2.53	269.88308	1448.04001	-1723.26035	99.16311	1417.66876	-1736.63544	290.44123	1531.77673	-1816.44257	71.90764	1486.28174	-1805.90652	263.70579	1316.28601	-1903.29651	133.29241	1310.63858	-1911.6571	273.06229	1391.71234	-2005.47729	127.377	1385.21591	-2009.33182	217.30848	1242.4675	-2115.20218	199.66097	1252.34482	-1866.36017	199.41578	1147.91977	-1834.13239	358.83186	1348.9505	-1934.98306	426.34403	1124.21463	-1958.80005	424.48978	1022.46582	-1938.9183	419.77654	943.06244	-1963.02826	344.01119	796.13419	-1905.45471	411.24378	795.30403	-1890.59616	378.12813	737.97409	-1853.75061	52.68652	1342.48077	-1949.89716	-6.19143	1146.75377	-2032.7504	-26.8736	1013.32085	-1989.6579	-28.03795	918.25935	-1982.94144	44.04775	794.44778	-1912.62833	-28.98032	782.09091	-1906.90323	-11.54165	745.05653	-1877.20673	332.53029	945.90088	-1924.87762	68.15295	946.50055	-1939.76837	293.78698	1007.81631	-2097.68021	123.33311	1020.70045	-2112.2493	331.58657	647.1759	-2062.60452	318.28503	497.46101	-2006.95847	251.9857	302.24539	-1994.48898	275.11679	153.60876	-2068.92365	217.77233	110.85474	-2130.1535	243.17993	77.39474	-1947.11456	64.13884	653.2309	-2016.80527	69.58621	520.4998	-1858.87802	72.5296	343.95439	-1910.80811	56.6644	180.97546	-2031.20239	103.26773	153.58355	-2107.78961	69.29466	86.53041	-1942.58499
5	2.563	272.5901	1445.95322	-1720.82611	101.80727	1415.80383	-1734.81934	293.03387	1530.60349	-1813.55438	74.87753	1484.97635	-1803.40286	265.84465	1314.97833	-1901.79916	136.57104	1309.87869	-1910.66483	276.56918	1391.36658	-2003.14865	130.84949	1384.88968	-2007.91321	221.20193	1242.68364	-2113.66928	202.57662	1251.48643	-1865.11673	202.1224	1147.01363	-1833.17017	361.85268	1348.63403	-1932.73697	429.83555	1123.5791	-1955.26672	428.09452	1022.07664	-1935.05936	423.6758	942.52922	-1958.64731	347.91481	795.67528	-1901.23306	415.15537	794.97467	-1885.75012	381.98677	737.75063	-1849.10706	55.94986	1341.90369	-1949.10477	-2.0152	1146.17989	-2033.25058	-22.35458	1012.5161	-1990.3447	-23.11373	917.42752	-1983.50571	49.30023	794.02176	-1911.44501	-23.84043	781.52206	-1906.77719	-7.3899	745.44579	-1876.34811	335.37247	945.80482	-1923.45795	71.02287	946.81694	-1938.60382	296.95084	1007.49947	-2096.37253	126.49279	1020.22278	-2111.43768	333.90297	647.03644	-2061.81335	320.23785	497.30473	-2006.71127	253.26477	302.19215	-1993.99094	275.68008	153.46622	-2068.95432	217.93814	111.27302	-2130.26535	243.27362	77.1815	-1946.92261	66.06297	653.49136	-2010.12619	72.35413	524.50832	-1848.33115	74.51464	348.04295	-1900.90759	57.65774	186.23827	-2022.72141	104.45332	158.98939	-2099.45648	68.97016	92.08541	-1934.25873
6	2.597	275.13205	1445.15533	-1718.31421	104.57863	1415.10101	-1732.64755	296.19654	1530.04486	-1809.75708	77.59886	1484.69803	-1801.02127	268.95161	1314.71664	-1899.90707	138.58424	1309.6759	-1909.40186	279.57027	1391.4949	-2000.88104	133.92114	1385.17059	-2006.10443	224.48303	1243.14789	-2111.85837	205.29213	1251.06194	-1863.58231	204.81493	1146.51566	-1831.89728	364.66007	1348.31161	-1930.48538	432.95139	1123.38211	-1952.56714	431.56307	1022.08008	-1931.79886	427.31316	942.26089	-1954.7937	351.59908	795.78362	-1896.6156	418.94733	795.15602	-1881.16272	385.75726	738.05458	-1844.21951	58.8527	1341.71005	-1947.81952	1.9487	1146.21674	-2033.5762	-18.23285	1012.42157	-1991.49017	-18.42022	916.97906	-1983.94501	53.04454	794.37874	-1909.94492	-19.98386	781.63513	-1906.53412	-4.64467	746.74728	-1874.94827	337.84142	945.75813	-1922.07291	73.94114	947.37732	-1937.45514	299.47758	1007.41203	-2095.01419	129.27551	1020.61134	-2110.19913	335.31326	647.03362	-2061.08292	321.64715	497.17297	-2006.36292	254.39423	302.1101	-1993.49976	276.09308	153.44696	-2069.25323	218.17686	111.53735	-2130.22964	243.84018	77.33305	-1947.20856	67.26418	654.39163	-2005.3775	74.93758	528.2198	-1840.63599	75.75333	351.20975	-1890.72952	58.61176	188.28997	-2011.34415	105.55314	159.38402	-2087.45285	68.3799	96.58219	-1921.47339
7	2.63	277.51425	1445.26428	-1715.77209	106.87596	1415.48004	-1730.44739	298.86612	1530.24933	-1807.2171	80.16703	1485.05417	-1798.77487	271.15696	1314.99588	-1897.84439	142.34102	1309.84543	-1907.47101	282.31785	1391.72211	-1998.43323	136.71869	1385.60623	-2003.99689	227.38895	1243.67882	-2109.78912	207.71795	1250.99854	-1861.86188	207.07699	1146.41136	-1830.24933	367.13734	1348.07419	-1928.02032	435.63759	1123.59497	-1950.41229	434.72393	1022.27287	-1929.01764	430.61085	942.37999	-1951.66107	355.12459	796.24062	-1891.85562	422.63985	795.66109	-1876.90659	389.67323	738.80867	-1839.41986	61.53542	1342.00348	-1946.22726	5.59446	1146.68472	-2033.29147	-15.10129	1012.91832	-1991.71936	-15.46513	917.44232	-1983.62549	54.83662	795.2092	-1907.67288	-18.0775	782.37511	-1905.60791	-3.44939	747.83089	-1873.49503	340.11311	945.68527	-1920.42816	75.83244	948.6171	-1935.87723	301.6634	1007.53235	-2093.41461	131.70445	1021.4167	-2108.72589	336.21719	647.14294	-2060.26489	322.77718	497.18079	-2005.93201	255.85358	302.29761	-1993.72543	276.59389	153.62249	-2069.51996	218.37437	111.85659	-2130.17914	244.46247	77.25594	-1947.60834	68.10799	655.5793	-2001.75079	77.03813	531.59065	-1834.7464	77.47364	353.77487	-1881.82663	59.78787	187.29208	-1997.30637	106.3456	155.94096	-2072.61108	68.20622	99.28348	-1904.81125
8	2.663	279.78531	1445.75256	-1713.30582	109.0771	1416.02615	-1728.26797	301.35027	1530.6311	-1804.79324	82.57453	1485.73822	-1796.67923	273.94276	1314.91684	-1895.74402	144.2902	1309.63058	-1905.6366	285.05194	1391.85837	-1995.95886	139.38598	1386.11206	-2001.77277	229.95544	1244.23798	-2107.63397	209.96515	1250.99411	-1859.95682	209.1791	1146.46652	-1828.51074	369.54422	1348.1636	-1925.72357	438.10703	1123.71078	-1948.55835	437.57431	1022.34955	-1926.54068	433.36311	942.342	-1948.9415	358.4502	796.50421	-1887.60712	426.12167	796.12778	-1873.24738	393.60001	739.56009	-1834.93164	64.03756	1342.48383	-1944.30634	8.41256	1147.39326	-2031.84555	-13.48688	1013.77365	-1990.41611	-14.16388	918.32161	-1982.17728	55.17974	796.12564	-1905.25726	-17.79489	783.34801	-1903.96912	-3.45332	748.53638	-1871.82419	341.53069	945.7235	-1918.71536	77.73798	949.61327	-1934.61716	303.53464	1007.85484	-2091.53183	133.62014	1022.19589	-2107.11945	336.97105	647.54692	-2059.55368	323.88721	497.39861	-2005.81863	257.39584	302.44993	-1993.79242	277.32113	153.9087	-2069.8793	218.69167	112.16722	-2130.17609	244.83778	77.16669	-1947.62268	68.42953	656.70296	-1998.86505	78.45026	534.24198	-1830.75089	78.0751	355.13592	-1872.48032	59.01754	184.4474	-1981.22543	106.09267	149.63398	-2055.03708	68.63542	99.40718	-1885.04547
9	2.697	281.73304	1446.01608	-1710.75699	111.08088	1416.56967	-1726.00479	303.60212	1530.78705	-1802.22366	84.72396	1486.30676	-1794.52179	275.5274	1314.767	-1893.83972	147.77038	1309.61105	-1905.15442	287.30331	1391.92505	-1993.50006	141.76992	1386.44592	-1999.43832	231.98792	1244.52705	-2105.26901	211.9418	1250.95085	-1857.98477	210.80894	1146.39473	-1826.62933	371.76792	1347.78366	-1923.33191	440.32398	1123.55461	-1946.60477	440.07683	1022.21138	-1924.25415	435.69366	942.20779	-1946.56982	361.34876	796.61774	-1883.53348	429.15333	796.25641	-1869.87335	397.20642	739.94995	-1830.88974	66.36421	1343.01193	-1942.28699	9.74508	1148.24051	-2029.51385	-12.65094	1014.57176	-1987.8949	-13.83845	919.27971	-1979.98764	54.63869	796.75987	-1903.15994	-18.39225	784.28108	-1902.00302	-3.90119	748.98087	-1869.92081	342.80811	945.61096	-1916.84662	78.95591	950.17471	-1932.94952	304.77333	1008.07579	-2089.4426	135.07528	1022.87079	-2105.23575	337.52277	647.74651	-2058.89771	324.54086	497.41299	-2005.86151	257.97132	302.52296	-1993.97385	277.73098	154.10155	-2070.15213	219.05607	112.20708	-2130.27283	244.98096	77.13668	-1947.69958	68.47125	657.55692	-1996.71356	78.81131	535.91698	-1828.40057	77.8918	355.73555	-1863.36563	58.45735	179.81783	-1963.16528	105.17624	141.82716	-2035.40802	68.73709	98.12885	-1862.98828
